<svg xmlns="http://www.w3.org/2000/svg" version="1.1" xmlns:xlink="http://www.w3.org/1999/xlink" xmlns:svgjs="http://svgjs.dev/svgjs" width="1000" height="170" viewBox="0 0 1000 170"><g transform="matrix(1,0,0,1,-0.19513591636047067,-0.7531037609962254)"><svg viewBox="0 0 323 55" data-background-color="#444444" preserveAspectRatio="xMidYMid meet" height="170" width="1000" xmlns="http://www.w3.org/2000/svg" xmlns:xlink="http://www.w3.org/1999/xlink"><g id="tight-bounds" transform="matrix(1,0,0,1,0.06302907265936142,0.24365121679289814)"><svg viewBox="0 0 322.87394202635613 54.51269531249999" height="54.51269531249999" width="322.87394202635613"><g><svg viewBox="0 0 322.87394202635613 54.51269531249999" height="54.51269531249999" width="322.87394202635613"><g><svg viewBox="0 0 322.87394202635613 54.51269531249999" height="54.51269531249999" width="322.87394202635613"><g id="textblocktransform"><svg viewBox="0 0 322.87394202635613 54.51269531249999" height="54.51269531249999" width="322.87394202635613" id="textblock"><g><svg viewBox="0 0 322.87394202635613 54.51269531249999" height="54.51269531249999" width="322.87394202635613"><g><svg><g></g><g></g></svg></g><g><svg><g><svg></svg></g><g></g></svg></g><g id="text-0"><svg viewBox="0 0 322.87394202635613 54.51269531249999" height="54.51269531249999" width="322.87394202635613"><g transform="matrix(1,0,0,1,0,10.410644531249996)"><svg width="155.322265625" viewBox="4.320000171661377 -33.08000183105469 155.30999755859375 33.69000244140625" height="33.69140625" data-palette-color="#ffffff"><path d="M10.79-20.58L10.79 0.15Q9.62 0 6.27 0L6.27 0 4.32 0 4.32-32.57Q5.88-32.47 7.76-32.47 9.64-32.47 10.42-32.67L10.42-32.67 18.63-18.73 26.51-32.67Q27.29-32.47 29.49-32.47 31.69-32.47 33.25-32.57L33.25-32.57 33.25 0 31.3 0Q27.95 0 26.78 0.15L26.78 0.15 26.78-21.73 18.8-7.45 10.79-20.58ZM60.28-12.82L60.28-32.59Q61.79-32.47 62.79-32.47L62.79-32.47 64.82-32.47Q65.84-32.47 66.97-32.67L66.97-32.67 66.97-12.48Q66.97-6.47 63.33-2.83L63.33-2.83Q59.89 0.61 54.69 0.61L54.69 0.61Q49 0.61 45.48-2.34L45.48-2.34Q41.55-5.66 41.55-11.91L41.55-11.91 41.55-32.59Q43.58-32.47 45.37-32.47 47.17-32.47 48.34-32.67L48.34-32.67 48.34-11.6Q48.34-8.52 50.22-6.81L50.22-6.81Q51.98-5.25 54.61-5.25L54.61-5.25Q58.52-5.25 59.81-9.25L59.81-9.25Q60.28-10.69 60.28-12.82L60.28-12.82ZM91.33 0.2L85.66-12.62Q84.93-12.57 84.1-12.57 83.27-12.57 81.64-12.7L81.64-12.7 81.64 0 75.17 0 75.17-32.64Q78.58-33.08 83.56-33.08L83.56-33.08Q90.35-33.08 93.68-30.58 97.02-28.08 97.02-22.85L97.02-22.85Q97.02-18.8 93.96-15.92L93.96-15.92Q92.96-14.99 91.67-14.31L91.67-14.31 96.65-3.81Q98.12-0.56 98.9 0.05L98.9 0.05 98.77 0.17Q96.41-0.22 91.33 0.2L91.33 0.2ZM84.03-27.32L84.03-27.32Q82.78-27.32 81.64-27.2L81.64-27.2 81.64-17.87Q82.83-17.7 84.44-17.7 86.05-17.7 87.15-17.98 88.25-18.26 89.06-18.85L89.06-18.85Q90.79-20.14 90.79-22.73 90.79-25.32 88.98-26.37L88.98-26.37Q87.3-27.32 84.03-27.32ZM108.95-7.03L106.66 0.2Q104.56 0 101.75 0L101.75 0 99.82 0 110.44-29.76Q111.15-31.76 111.15-32.09 111.15-32.42 111.13-32.5L111.13-32.5 111.15-32.54Q112.74-32.47 114.52-32.47L114.52-32.47Q115.98-32.47 118.03-32.52L118.03-32.52 118.06-32.47Q118.01-32.37 118.01-32.2L118.01-32.2Q118.01-31.74 118.74-29.74L118.74-29.74 129.58 0.07Q129.09 0.05 128.43 0.05L128.43 0.05Q128.43 0.05 127.17 0L127.17 0Q126.56 0 126.07 0L126.07 0 122.28 0 119.99-7.03 108.95-7.03ZM110.81-12.89L118.08-12.89 114.4-24.24 110.81-12.89ZM141.42 0.61L141.42 0.61Q137.47 0.61 133.97-0.02L133.97-0.02 133.97-32.69Q137.2-33.08 141.46-33.08 145.72-33.08 149.17-31.92 152.63-30.76 154.95-28.61L154.95-28.61Q159.63-24.32 159.63-16.58L159.63-16.58Q159.63-7.91 154.41-3.42L154.41-3.42Q149.72 0.61 141.42 0.61ZM140.32-27.1L140.32-5.35Q141.91-5.05 143.5-5.05 145.08-5.05 146.91-5.68 148.74-6.3 150.09-7.62L150.09-7.62Q152.97-10.4 152.97-15.72L152.97-15.72Q152.97-24.46 146.6-26.46L146.6-26.46Q144.5-27.12 141.74-27.12L141.74-27.12 141.08-27.12Q140.71-27.12 140.32-27.1L140.32-27.1Z" opacity="1" transform="matrix(1,0,0,1,0,0)" fill="#ffffff" class="undefined-p-0"></path></svg></g><g><svg xmlns="http://www.w3.org/2000/svg" xmlns:xlink="http://www.w3.org/1999/xlink" version="1.1" x="168.1923828125" y="0" viewBox="9.63800048828125 3.246999979019165 80.7239990234375 93.50699615478516" enable-background="new 0 0 100 100" xml:space="preserve" height="54.51269531249999" width="47.06046546385613" class="icon-s-0" data-fill-palette-color="accent" id="s-0"><g fill="#00d1cd" data-fill-palette-color="accent"><g fill="#00d1cd" data-fill-palette-color="accent"><polygon points="36.703,11.011 9.638,26.636 9.638,38.757 36.703,23.131 63.767,38.757 63.767,26.636   " fill="#00d1cd" data-fill-palette-color="accent"></polygon></g><g fill="#00d1cd" data-fill-palette-color="accent"><polygon points="63.298,89.092 36.233,73.467 36.233,61.348 63.298,76.973 90.362,61.348 90.362,73.467   " fill="#00d1cd" data-fill-palette-color="accent"></polygon></g><g fill="#00d1cd" data-fill-palette-color="accent"><polygon points="9.638,42.012 36.703,26.386 47.198,32.446 20.134,48.072 20.134,79.324 9.638,73.264   " fill="#00d1cd" data-fill-palette-color="accent"></polygon></g><g fill="#00d1cd" data-fill-palette-color="accent"><polygon points="77.083,18.872 50.018,3.247 39.522,9.307 66.586,24.932 66.586,56.184 77.083,50.124   " fill="#00d1cd" data-fill-palette-color="accent"></polygon></g><g fill="#00d1cd" data-fill-palette-color="accent"><polygon points="23.01,81.127 23.011,49.876 33.507,43.816 33.507,75.068 60.571,90.693 50.075,96.754   " fill="#00d1cd" data-fill-palette-color="accent"></polygon></g><g fill="#00d1cd" data-fill-palette-color="accent"><polygon points="90.362,58.092 90.362,26.84 79.866,20.78 79.866,52.031 52.802,67.658 63.298,73.719   " fill="#00d1cd" data-fill-palette-color="accent"></polygon></g></g></svg></g><g transform="matrix(1,0,0,1,228.12296546385613,10.410644531249996)"><svg width="94.7509765625" viewBox="0.20000000298023224 -33.08000183105469 94.74000549316406 33.69000244140625" height="33.69140625" data-palette-color="#ffffff"><path d="M15.87 0.02L15.82 0.1Q15.09 0 13.33 0L13.33 0 10.5 0Q9.67 0 9.13 0.05L9.13 0.05 9.11 0Q9.2-0.17 9.2-0.39 9.2-0.61 9.17-0.85 9.13-1.1 8.97-1.73 8.81-2.37 8.5-3.56L8.5-3.56 0.2-32.57Q1.76-32.47 3.98-32.47 6.2-32.47 6.86-32.67L6.86-32.67 12.62-10.57 18.24-32.57Q18.6-32.54 18.9-32.52L18.9-32.52 19.43-32.52Q20.24-32.47 21.46-32.47 22.68-32.47 23.97-32.67L23.97-32.67 29.69-10.57 34.59-32.57Q36.06-32.47 38.43-32.47 40.8-32.47 41.31-32.67L41.31-32.67 34.28-6.91Q32.93-2.47 32.86-1.64 32.79-0.81 32.79-0.49 32.79-0.17 32.89 0.02L32.89 0.02 32.84 0.1Q32.06 0 30.37 0L30.37 0Q28.91 0 27.71 0 26.51 0 25.98 0.05L25.98 0.05 25.95 0Q26.05-0.17 26.05-0.39 26.05-0.61 26.03-0.83 26-1.05 25.89-1.67 25.78-2.29 25.54-3.52L25.54-3.52 24.88-6.84 20.87-22.05 17.07-6.91Q15.89-2.25 15.84-1.54L15.84-1.54Q15.75-0.2 15.87 0.02L15.87 0.02ZM52.32-5.86L62.28-5.86Q63.79-5.86 64.38-6.15L64.38-6.15 64.48-6.13 64.23 0 45.94 0 45.94-32.64Q46.6-32.59 47.41-32.57L47.41-32.57 49.12-32.52Q50.83-32.47 52.83-32.47L52.83-32.47Q58.42-32.47 63.89-32.67L63.89-32.67Q63.62-30.52 63.62-26.93L63.62-26.93Q63.62-26.54 63.67-26.34L63.67-26.34 63.62-26.27Q62.35-26.64 60.01-26.64L60.01-26.64 52.32-26.64 52.32-20.41 58.1-20.41Q60.79-20.41 61.33-20.56L61.33-20.56 61.4-14.53Q60.23-14.65 58.37-14.65L58.37-14.65 52.32-14.65 52.32-5.86ZM91.51-2.38Q89.72-0.95 86.86-0.17 84 0.61 79.84 0.61 75.68 0.61 70.99-0.15L70.99-0.15 70.99-32.32Q75.73-33.08 79.21-33.08 82.69-33.08 84.92-32.42 87.15-31.76 88.57-30.64L88.57-30.64Q91.35-28.47 91.35-25.01 91.35-21.56 88.84-19.29L88.84-19.29Q91.82-18.36 93.45-15.77L93.45-15.77Q94.94-13.45 94.94-10.63 94.94-7.81 94.12-5.81 93.31-3.81 91.51-2.38ZM77.46-27.81L77.46-20.19Q78.49-20.02 80.02-20.02 81.56-20.02 82.55-20.42 83.54-20.83 84.08-21.44L84.08-21.44Q84.96-22.44 84.96-24.22L84.96-24.22Q84.96-27.95 80.56-27.95L80.56-27.95Q78.71-27.95 77.46-27.81L77.46-27.81ZM81.07-14.97L81.07-14.97Q79.02-14.97 77.46-14.7L77.46-14.7 77.46-5.1Q79.17-4.66 81.05-4.66 82.93-4.66 84.36-5.11 85.79-5.57 86.76-6.35L86.76-6.35Q88.74-7.96 88.74-10.45L88.74-10.45Q88.74-14.97 81.07-14.97Z" opacity="1" transform="matrix(1,0,0,1,0,0)" fill="#ffffff" class="undefined-p-1"></path></svg></g></svg></g></svg></g></svg></g></svg></g><g></g></svg></g><defs></defs></svg><rect width="322.87394202635613" height="54.51269531249999" fill="none" stroke="none" visibility="hidden"></rect></g></svg></g></svg>